<?xml version="1.0" encoding="UTF-8" standalone="no"?><!DOCTYPE svg PUBLIC "-//W3C//DTD SVG 1.1//EN" "http://www.w3.org/Graphics/SVG/1.1/DTD/svg11.dtd"><svg width="100%" height="100%" viewBox="0 0 31 31" version="1.1" xmlns="http://www.w3.org/2000/svg" xmlns:xlink="http://www.w3.org/1999/xlink" xml:space="preserve" xmlns:serif="http://www.serif.com/" style="fill-rule:evenodd;clip-rule:evenodd;stroke-linejoin:round;stroke-miterlimit:2;"><path d="M30.72,3.686c0,-2.034 -1.652,-3.686 -3.686,-3.686l-23.348,0c-2.034,0 -3.686,1.652 -3.686,3.686l0,23.348c0,2.034 1.652,3.686 3.686,3.686l23.348,0c2.034,0 3.686,-1.652 3.686,-3.686l0,-23.348Z" style="fill:#1b1b1b;"/><circle cx="11.52" cy="15.36" r="3.155" style="fill:#8ac7ff;"/><circle cx="26.88" cy="15.36" r="3.155" style="fill:#fc6;"/><circle cx="19.2" cy="15.36" r="3.155" style="fill:#ff604f;"/><circle cx="3.84" cy="15.36" r="3.155" style="fill:#75ff9d;"/><g><path d="M9.986,11.42c-0.1,-0 -0.191,-0.063 -0.225,-0.158c-0.145,-0.397 -0.523,-1.435 -0.667,-1.832c-0.035,-0.095 -0.125,-0.158 -0.226,-0.158c-0.63,0 -2.851,0 -3.482,0c-0.101,0 -0.191,0.063 -0.225,0.158c-0.145,0.397 -0.523,1.435 -0.667,1.832c-0.035,0.095 -0.125,0.158 -0.226,0.158c-0.315,-0 -1,-0 -1.418,-0c-0.079,-0 -0.153,-0.039 -0.198,-0.104c-0.045,-0.065 -0.055,-0.148 -0.026,-0.222c0.581,-1.516 3.011,-7.849 3.421,-8.92c0.036,-0.092 0.125,-0.154 0.224,-0.154c0.396,0 1.395,0 1.791,0c0.1,0 0.189,0.062 0.224,0.155c0.409,1.072 2.82,7.404 3.397,8.919c0.028,0.074 0.018,0.157 -0.027,0.222c-0.044,0.065 -0.118,0.104 -0.197,0.104c-0.431,-0 -1.149,-0 -1.473,-0Zm-2.633,-6.755c-0.035,-0.095 -0.125,-0.158 -0.226,-0.158c-0.101,0 -0.191,0.063 -0.225,0.158c-0.278,0.76 -0.74,2.024 -0.956,2.614c-0.027,0.074 -0.016,0.156 0.029,0.22c0.045,0.064 0.118,0.103 0.196,0.103l1.912,-0c0.079,-0 0.152,-0.039 0.197,-0.103c0.045,-0.064 0.055,-0.146 0.029,-0.22c-0.216,-0.59 -0.678,-1.854 -0.956,-2.614Z" style="fill:#d7d7d7;"/><path d="M17.801,11.42c-0.091,-0 -0.173,-0.051 -0.214,-0.131c-0.288,-0.566 -1.422,-2.792 -1.709,-3.357c-0.041,-0.081 -0.124,-0.132 -0.214,-0.132c-0.152,0 -0.389,0 -0.568,0c-0.063,0 -0.124,0.026 -0.169,0.071c-0.045,0.045 -0.071,0.106 -0.071,0.169l0,3.14c0,0.063 -0.025,0.124 -0.07,0.169c-0.045,0.045 -0.106,0.071 -0.17,0.071l-1.363,-0c-0.063,-0 -0.124,-0.026 -0.169,-0.071c-0.045,-0.045 -0.071,-0.106 -0.071,-0.169c0,-1.312 0,-7.608 0,-8.92c0,-0.132 0.108,-0.24 0.24,-0.24c0.816,0 3.433,0 3.433,0c0.901,0 1.626,0.274 2.174,0.822c0.548,0.548 0.822,1.238 0.822,2.068c-0,0.654 -0.179,1.218 -0.537,1.691c-0.306,0.404 -0.708,0.7 -1.205,0.888c-0.064,0.024 -0.115,0.074 -0.139,0.138c-0.025,0.064 -0.021,0.135 0.011,0.196c0.346,0.664 1.296,2.477 1.699,3.245c0.039,0.075 0.036,0.164 -0.007,0.236c-0.044,0.072 -0.122,0.116 -0.206,0.116c-0.458,-0 -1.187,-0 -1.497,-0Zm-2.945,-5.437c0,0.064 0.026,0.125 0.071,0.17c0.045,0.045 0.106,0.07 0.169,0.07c0.42,-0 1.245,-0 1.245,-0c0.46,-0 0.82,-0.119 1.081,-0.358c0.26,-0.239 0.391,-0.552 0.391,-0.941c-0,-0.398 -0.131,-0.716 -0.391,-0.955c-0.261,-0.239 -0.621,-0.358 -1.081,-0.358c0,0 -0.825,0 -1.245,0c-0.063,0 -0.124,0.025 -0.169,0.07c-0.045,0.045 -0.071,0.107 -0.071,0.17c0,0.497 0,1.635 0,2.132Z" style="fill:#d7d7d7;"/><path d="M28.22,3.517c-0,0.064 -0.026,0.125 -0.071,0.17c-0.045,0.045 -0.106,0.07 -0.169,0.07c-0.558,0 -1.933,0 -2.49,0c-0.133,0 -0.24,0.107 -0.24,0.24c-0,1.144 -0,6.038 -0,7.183c-0,0.132 -0.108,0.24 -0.24,0.24c-0.353,-0 -1.01,-0 -1.363,-0c-0.132,-0 -0.24,-0.108 -0.24,-0.24c0,-1.145 0,-6.039 0,-7.183c0,-0.133 -0.107,-0.24 -0.24,-0.24c-0.557,0 -1.932,0 -2.489,0c-0.064,0 -0.125,-0.025 -0.17,-0.07c-0.045,-0.045 -0.07,-0.106 -0.07,-0.17c-0,-0.331 -0,-0.925 -0,-1.257c-0,-0.063 0.025,-0.124 0.07,-0.169c0.045,-0.045 0.106,-0.071 0.17,-0.071c1.156,0 6.145,0 7.302,0c0.063,0 0.124,0.026 0.169,0.071c0.045,0.045 0.071,0.106 0.071,0.169c-0,0.332 -0,0.926 -0,1.257Z" style="fill:#d7d7d7;"/></g><g><path d="M10.443,28.46c-0,0.063 -0.025,0.124 -0.07,0.169c-0.045,0.045 -0.106,0.071 -0.17,0.071l-1.551,-0c-0.082,-0 -0.158,-0.042 -0.202,-0.111c-0.436,-0.681 -2.769,-4.324 -3.756,-5.867c-0.058,-0.09 -0.167,-0.131 -0.27,-0.101c-0.102,0.03 -0.172,0.124 -0.172,0.23c-0,1.522 -0,4.711 -0,5.609c-0,0.063 -0.025,0.124 -0.071,0.169c-0.045,0.045 -0.106,0.071 -0.169,0.071c-0.351,-0 -0.999,-0 -1.35,-0c-0.063,-0 -0.124,-0.026 -0.169,-0.071c-0.045,-0.045 -0.071,-0.106 -0.071,-0.169c0,-1.312 0,-7.608 0,-8.92c0,-0.063 0.026,-0.124 0.071,-0.169c0.045,-0.045 0.106,-0.071 0.169,-0.071l1.908,0c0.082,0 0.159,0.043 0.203,0.113c0.408,0.648 2.476,3.937 3.397,5.4c0.057,0.091 0.167,0.133 0.27,0.103c0.103,-0.029 0.173,-0.123 0.173,-0.23c0,-1.435 0,-4.3 0,-5.146c0,-0.132 0.108,-0.24 0.24,-0.24c0.351,0 0.999,0 1.35,0c0.064,0 0.125,0.026 0.17,0.071c0.045,0.045 0.07,0.106 0.07,0.169c-0,1.312 -0,7.608 -0,8.92Z" style="fill:#d7d7d7;"/><path d="M18.477,28.46c-0,0.063 -0.025,0.124 -0.07,0.169c-0.045,0.045 -0.107,0.071 -0.17,0.071c-0.952,-0 -4.455,-0 -5.406,-0c-0.064,-0 -0.125,-0.026 -0.17,-0.071c-0.045,-0.045 -0.07,-0.106 -0.07,-0.169c-0,-1.312 -0,-7.608 -0,-8.92c-0,-0.063 0.025,-0.124 0.07,-0.169c0.045,-0.045 0.106,-0.071 0.17,-0.071c0.951,0 4.454,0 5.406,0c0.063,0 0.125,0.026 0.17,0.071c0.045,0.045 0.07,0.106 0.07,0.169c-0,0.329 -0,0.915 -0,1.244c-0,0.063 -0.025,0.124 -0.07,0.169c-0.045,0.045 -0.107,0.071 -0.17,0.071c-0.72,-0 -2.857,-0 -3.577,-0c-0.064,-0 -0.125,0.025 -0.17,0.07c-0.045,0.045 -0.07,0.106 -0.07,0.17l0,1.667c0,0.133 0.108,0.24 0.24,0.24c0.665,0 2.527,0 3.192,0c0.133,0 0.24,0.108 0.24,0.24c0,0.309 0,0.842 0,1.151c0,0.133 -0.107,0.24 -0.24,0.24c-0.665,0 -2.527,0 -3.192,0c-0.064,0 -0.125,0.025 -0.17,0.07c-0.045,0.045 -0.07,0.106 -0.07,0.17c0,0.418 0,1.276 0,1.694c0,0.064 0.025,0.125 0.07,0.17c0.045,0.045 0.106,0.07 0.17,0.07c0.72,0 2.857,0 3.577,0c0.063,0 0.125,0.026 0.17,0.071c0.045,0.045 0.07,0.106 0.07,0.169c-0,0.329 -0,0.915 -0,1.244Z" style="fill:#d7d7d7;"/><path d="M27.386,20.797c-0,0.064 -0.026,0.125 -0.071,0.17c-0.045,0.045 -0.106,0.07 -0.169,0.07c-0.557,0 -1.933,0 -2.49,0c-0.132,0 -0.24,0.107 -0.24,0.24c0,1.144 0,6.038 0,7.183c0,0.132 -0.107,0.24 -0.24,0.24c-0.353,-0 -1.009,-0 -1.363,-0c-0.132,-0 -0.24,-0.108 -0.24,-0.24c0,-1.145 0,-6.039 0,-7.183c0,-0.133 -0.107,-0.24 -0.24,-0.24c-0.557,0 -1.932,0 -2.489,0c-0.064,0 -0.125,-0.025 -0.17,-0.07c-0.045,-0.045 -0.07,-0.106 -0.07,-0.17c-0,-0.331 -0,-0.925 -0,-1.257c-0,-0.063 0.025,-0.124 0.07,-0.169c0.045,-0.045 0.106,-0.071 0.17,-0.071c1.156,0 6.145,0 7.302,0c0.063,0 0.124,0.026 0.169,0.071c0.045,0.045 0.071,0.106 0.071,0.169c-0,0.332 -0,0.926 -0,1.257Z" style="fill:#d7d7d7;"/></g></svg>